<?xml version="1.0" encoding="utf-8"?>
<!-- Generator: Adobe Illustrator 27.5.0, SVG Export Plug-In . SVG Version: 6.00 Build 0)  -->
<svg version="1.1" id="Layer_1" xmlns:xodm="http://www.corel.com/coreldraw/odm/2003"
	 xmlns="http://www.w3.org/2000/svg" xmlns:xlink="http://www.w3.org/1999/xlink" x="0px" y="0px" viewBox="0 0 4000 4000"
	 style="enable-background:new 0 0 4000 4000;" xml:space="preserve">
<g id="Layer_x5F_1">
	<g id="_2818958721088">
		<rect style="fill:#FFFFFF;" width="4000" height="4000"/>
		<g>
			<g>
				<g>
					<path style="fill:#1B84F8;" d="M2019.01,2504.73c15.7-6.99,44.87-41.33,145.49-81.83c201.26-81.02,394.69-74.9,608.83-75.47
						c-5.12-16.8-22.03-38.88-31.6-55.21l-96.46-161.88c-174.17,4.97-474.53-17.01-583.75,165.52
						C2023.85,2358.81,2013.74,2419.26,2019.01,2504.73z"/>
					<path style="fill:#1B84F8;" d="M1228.46,2347.4c215.03,0.69,408.64-7,610.13,72.58c24.68,9.75,57.78,23.71,77.97,35.81
						l70.8,47.07c-1.46-89.03-0.67-137.17-43.83-204.93c-72.7-114.1-207.27-149.96-341.38-162.62
						c-67.83-6.4-175.53-7.94-244.72-4.33L1228.46,2347.4L1228.46,2347.4z"/>
					<path style="fill:#1B84F8;" d="M2865.5,2665.89l-1764.23,1.42c-8.57,20.23-29.01,37.97-35.21,59.74l853.06,0.19
						c12.97,15.13,24.49,54.96,82.68,57.28c43.69,1.75,75.07-24.74,84.79-56l847.35-1.33c-7.29-16.83-13.2-24.63-22.43-39.49
						C2896.66,2663.8,2900.85,2664.35,2865.5,2665.89L2865.5,2665.89z"/>
					<path style="fill:#1B84F8;" d="M1229.14,2488.43c211.99,1.15,505.7-13.63,689.6,65.01c18.9,8.08,31.62,16.93,48.8,24.16
						c-38.44-54.33-191.2-109.12-252.66-126.63c-146.79-41.82-288.77-39.14-438.04-39.32
						C1264.87,2439.62,1243.38,2462.68,1229.14,2488.43z"/>
					<path style="fill:#1B84F8;" d="M2039.56,2578.61c45.94-15.02,38.42-29.83,148.74-56.42c185.89-44.8,393.63-30.2,582.75-33.6
						c-6.56-17.07-38.05-64.27-49.01-76.93c-207.73-1.16-478.23,10.87-653.58,139.37l-22.14,19.07
						C2040.13,2577.02,2044.42,2570.94,2039.56,2578.61L2039.56,2578.61z"/>
					<path style="fill:#1B84F8;" d="M2306.08,2539.18c-43.74,3.27-85.61,12.82-127.22,22.19c-19.59,4.42-41.5,10-59.65,16.15
						c-9.13,3.1-18.34,6.64-27.75,10l-19.42,8.7c-4.85,3.52-2.97,2.1-6.22,5.73l758.76-0.49c-0.63-2.03-2.23-5.47-2.89-6.58
						l-4.22-6.46c-0.34-0.5-1.06-1.52-1.63-2.25l-40.91-60.77c-115.38,0.97-244.99-1-359.73,5.22
						C2379.051,2532.57,2339.751,2537.88,2306.08,2539.18L2306.08,2539.18z"/>
					<path style="fill:#1B84F8;" d="M1184.19,2593.61c-5.35,4.87-1.18-8.67-5.16,7.19l766.41,1.2l-23.71-13.27
						c-10.06-4.03-18.43-6.61-28.32-9.97c-57.88-19.6-128.17-33.88-190.14-39.01c-75.25-9.87-151.53-11.09-228.65-12.92
						c-78.37-1.85-166.93-4.29-244.69-0.76C1215.65,2541.96,1195.2,2573.18,1184.19,2593.61z"/>
				</g>
				<g>
					<path style="fill:#1B84F8;" d="M2227.89,912.34c-21.71-7.61-45.66-16.8-67.63-25.21c-40.39-15.46-34.42-13.91-75.35-3.22
						l-1.42,14.69c-6.86,18.14-7.53,24.34-22.4,34.74c-12.76,8.91-28.98,14.53-48.07,12.8c-65.19-5.96-76.3-92.27-12.53-112.65
						c33.23-10.62,45.31,9.11,60.84,8.94c13.85-0.15,33.99-13.13,57.3-12.62c25.55,0.55,339.68,123.8,367.41,134.86
						c39.47,15.73,69.34,21.63,70.77,73.1c1.08,38.93,0.84,83.22-0.1,123.71c-33.97,6.46-59.65,36.3-59.65,72.14
						c0,40.56,32.88,73.44,73.44,73.44c40.55,0,73.43-32.88,73.43-73.44c0-35.94-25.82-65.84-59.92-72.19v-128.61l73.78-33.54
						c-0.83-0.45-4.51-2.38-5.4-2.81l-29.91-11.84c-13.86-5.34-27-10.86-40.92-16.22L2334.06,872
						c-54.73-21.35-109.62-42.75-165.75-63.35c-27.78-10.19-55.18-21.09-82.97-31.52c-13.74-5.15-28.33-10.08-42.07-15.23
						c-19.27-7.22-22.44-13.18-41.92-5.59c-108.56,42.3-222.58,83.32-330.92,125.07c-25.48,9.82-310.8,118.15-328.22,130.45
						c0.55,0.36,1.46,0.14,1.73,0.94c0.28,0.78,1.35,0.73,1.73,0.91l280.09,105.54c96.39,36.57,190.2,68.88,286.66,103.94
						c33.46,12.16,22.85,10.35,70.22-6.44l501.29-182.67l25.13-11.96c-9.43-8.56-119.34-48.68-139.1-55.7
						C2322.59,949.58,2275.07,927.79,2227.89,912.34L2227.89,912.34z"/>
					<path style="fill:#1B84F8;" d="M2336.92,2032.76c-5.69-13.8-27.08-41.5-36.12-54.07l-75.66,40.69
						c-181.98,84.9-385.4,51.18-539.91-74.12c-10.36-8.4-19.98-19-29.29-27.92c-25.46-24.42-58.76-68.57-77.13-99.94
						c-49.91-85.25-73.06-180.11-66.2-284.74c6.22-94.97,38.19-187.07,93.86-256.91c16.02-20.09,14.32-8.45,14.33-42.53
						c0-15.81,4.94-45.3-2.14-57.08c-13.57-2.03-19.4,10.83-36.49,28.4c-25,25.69-64.5,89.29-78.57,119.29
						c-79.76,170.15-76.32,364.91,21.29,526.67c88.98,147.44,216.72,237.5,390.33,271.48c113.81,22.27,233.55,3.08,337.2-41.47
						C2273.9,2071.29,2323.81,2045.86,2336.92,2032.76z"/>
					<path style="fill:#1B84F8;" d="M1917.28,1951.12c-30.18-39.01-58-92.44-80.66-147.18c-24.04-58.08-35.76-118.51-43.77-187.61
						l-140.65-0.95c9.54,83.32,51.77,161.06,93.08,207.42c33.69,37.81,75.71,79.18,122.64,103.89
						C1880.84,1933.49,1907.17,1948.97,1917.28,1951.12L1917.28,1951.12z"/>
					<path style="fill:#1B84F8;" d="M1990.52,1952.06l0.58-336.21l-137.43-0.32c7.03,92.98,41.29,191.32,86.27,268
						C1949.94,1900.59,1979.3,1945.12,1990.52,1952.06L1990.52,1952.06z"/>
					<path style="fill:#1B84F8;" d="M2049.82,1950.31l47.16-66.86c43.88-69.98,82.3-183.6,86.71-268l-135.31,0.01
						C2050.17,1673.61,2044.07,1921.32,2049.82,1950.31L2049.82,1950.31z"/>
					<path style="fill:#1B84F8;" d="M1649.43,1562.35l143.01-0.03c0.84-100.91,16.55-106.13,25.29-171.24
						c-46.93-9.52-103.7-34.31-116.74-36.83c-4.33,14.28-13.75,27.73-20.03,42.76c-6.37,15.26-11.27,31.88-16.26,48.72
						C1653.84,1482.34,1649.07,1522.16,1649.43,1562.35z"/>
					<path style="fill:#1B84F8;" d="M1936.41,1291.32l-254.53-92.56c-3.09,73.04-7.18,79.87,38.82,101.7
						c66.3,31.47,155.38,48.95,229.71,53.93c49.32,3.3,95.56-2.32,141.41-0.76c56.31-5.46,192.89-34.98,240.98-67.89
						c13.95-9.55,18.65-8.1,18.93-30.66c-21.39,6.17-114.01,48.69-128.85,40.57c-27.15-22.3,41.96-38.68,60.81-45.94
						c76.34-29.43,68.62-17.29,68.59-50.03c-21.54,5.3-96.59,34.67-124.8,45.83c-19.96,7.9-34.47,12.3-30.57-16.03
						c14.92-10.39,135.76-55.85,156.01-61.22l-0.49-20.69l-308,107.73C2020.24,1263.8,1957.2,1290.33,1936.41,1291.32
						L1936.41,1291.32z"/>
					<path style="fill:#1B84F8;" d="M1852.85,1561.67l137.75,0.74c0.66-28.26,4.06-129.92-1.03-150.37l-112.53-9.28
						C1861.85,1458.55,1854.25,1499.06,1852.85,1561.67z"/>
					<path style="fill:#1B84F8;" d="M2049.43,1412.35l-0.89,149.4l136.89,0.84c-1.19-56.33-8.55-112.64-26.64-161.36
						L2049.43,1412.35z"/>
					<path style="fill:#1B84F8;" d="M2220.28,1976.23c52.58-14.69,98.1-55.57,134.48-90.27c16.19-15.43,55.91-72.72,67.26-94.07
						c52.54-98.83,71.27-208,51.6-322.83c-9.35-54.6-44.02-150.93-73.11-185.6c-12.4,24.95-16.56,13.31-4.3,39.59
						c23.73,50.89,37.54,73.18,49.97,137.72c28.79,149.47-7.91,278.06-95.44,392.5c-8.55,11.18-17.16,22.6-28.95,33.56
						c-22.39,20.83-31.67,35.48-64.52,60.51l-26.68,20.1c-0.2,0.15-4.36,3.23-4.54,3.38c-0.45,0.37-1.05,0.88-1.47,1.25
						L2220.28,1976.23L2220.28,1976.23z"/>
					<path style="fill:#1B84F8;" d="M1823.95,1980.34c-238.36-147.42-318.93-416.62-178.97-666.4c-3.32-6.76-7.13-14.26-13.3-19.58
						c-31.38,36.51-64.18,132.07-74.08,185.25c-31.1,167.02,41.39,364.14,180.52,457.03
						C1756.84,1949.15,1798.98,1975.65,1823.95,1980.34z"/>
					<path style="fill:#1B84F8;" d="M2262.83,1614.9l-18.4,1.05c-4.4,65.59-19.58,125.71-42.65,184.8
						c-6.33,16.2-18.87,39.45-22.79,53.94l-45.15,73.4c-10.41,15.26-13.04,12.93-17.72,23.36c46.39-13.68,100.62-57.38,134.89-88.44
						c61.96-56.15,122.24-165.78,129.29-247.56L2262.83,1614.9L2262.83,1614.9z"/>
					<path style="fill:#1B84F8;" d="M2247.24,1558.77c6.75,6.55,8.79,3.29,30.33,3.23l104.13,1.03
						c8.49-53.36-24.22-176.17-52.04-212.07c-13.46,2.37-39.12,13.08-54.16,18.26c-16.7,5.76-37.34,13.11-56.24,16.33l6.33,20.68
						c0.35,16.57,10.99,52.28,13.95,73.59C2242.3,1499.67,2243.46,1544.33,2247.24,1558.77L2247.24,1558.77z"/>
					<path style="fill:#1B84F8;" d="M2308.22,1139.47c23.59,0.13,175.79-61.13,203.16-73.36l-0.28-16.57l-155.95,60.9
						C2338.86,1116.43,2310.31,1120.15,2308.22,1139.47L2308.22,1139.47z"/>
				</g>
			</g>
			<path style="fill:#1B84F8;" d="M874.27,2999.8v73.14h98.21v46.39h-98.21v77.32h110.75v47.64H815.75v-292.14h169.27v47.65
				L874.27,2999.8L874.27,2999.8z M1140.08,2952.57c30.65,0,57.61,5.99,80.87,17.97c23.27,11.98,41.24,29.05,53.92,51.2
				c12.67,22.15,19.01,47.85,19.01,77.11s-6.34,54.82-19.01,76.69c-12.68,21.88-30.65,38.8-53.92,50.78
				c-23.26,11.98-50.22,17.97-80.87,17.97H1038.1v-291.72H1140.08z M1137.99,3194.56c30.65,0,54.33-8.36,71.05-25.08
				c16.72-16.72,25.08-40.26,25.08-70.63c0-30.37-8.36-54.12-25.08-71.26s-40.4-25.7-71.05-25.7h-41.38v192.67H1137.99z
				 M1395.44,2952.57v180.55c0,19.78,5.16,34.9,15.47,45.35c10.31,10.45,24.8,15.67,43.46,15.67c18.95,0,33.58-5.22,43.89-15.67
				s15.46-25.57,15.46-45.35v-180.55h58.93v180.13c0,24.8-5.36,45.77-16.09,62.9c-10.73,17.14-25.08,30.03-43.05,38.66
				c-17.97,8.64-37.96,12.96-59.97,12.96c-21.74,0-41.45-4.32-59.14-12.96c-17.69-8.63-31.7-21.52-42.01-38.66
				c-10.3-17.13-15.46-38.1-15.46-62.9v-180.13L1395.44,2952.57L1395.44,2952.57z M1614.86,3098.01c0-28.69,6.48-54.4,19.44-77.11
				c12.95-22.71,30.65-40.4,53.08-53.08c22.43-12.67,47.57-19.01,75.44-19.01c32.6,0,61.16,8.36,85.68,25.07
				c24.52,16.72,41.65,39.85,51.4,69.38h-67.29c-6.68-13.93-16.09-24.38-28.21-31.34c-12.12-6.97-26.12-10.45-42-10.45
				c-17,0-32.11,3.97-45.35,11.91c-13.23,7.94-23.54,19.16-30.93,33.64c-7.38,14.49-11.07,31.49-11.07,50.99
				c0,19.23,3.69,36.16,11.07,50.78c7.39,14.63,17.7,25.92,30.93,33.86c13.24,7.94,28.35,11.91,45.35,11.91
				c15.88,0,29.88-3.55,42-10.66c12.12-7.1,21.53-17.62,28.21-31.55h67.29c-9.75,29.81-26.82,53.01-51.2,69.58
				c-24.38,16.58-53,24.87-85.88,24.87c-27.87,0-53.01-6.34-75.44-19.01c-22.43-12.68-40.13-30.31-53.08-52.87
				C1621.34,3152.35,1614.86,3126.71,1614.86,3098.01L1614.86,3098.01z M2128.93,3188.71h-116.18l-19.23,55.58h-61.44l104.91-292.14
				h68.12l104.91,292.14h-61.86L2128.93,3188.71z M2113.05,3141.9l-42.21-122.04l-42.21,122.04H2113.05z M2447.83,2952.57v47.23
				h-77.74v244.49h-58.51V2999.8h-77.74v-47.23H2447.83z M2548.97,2952.57v291.72h-58.51v-291.72H2548.97z M2742.06,3247.22
				c-27.31,0-52.38-6.41-75.23-19.23c-22.85-12.81-40.96-30.57-54.33-53.28c-13.38-22.71-20.06-48.41-20.06-77.11
				c0-28.42,6.68-53.99,20.06-76.7c13.37-22.71,31.48-40.47,54.33-53.28c22.85-12.82,47.92-19.23,75.23-19.23
				c27.58,0,52.73,6.41,75.44,19.23c22.71,12.81,40.68,30.57,53.91,53.28c13.24,22.71,19.86,48.28,19.86,76.7
				c0,28.7-6.62,54.4-19.86,77.11c-13.23,22.71-31.27,40.47-54.12,53.28C2794.44,3240.81,2769.37,3247.22,2742.06,3247.22
				L2742.06,3247.22z M2742.06,3194.98c17.55,0,33.02-3.97,46.39-11.91c13.38-7.95,23.82-19.3,31.35-34.07
				c7.52-14.76,11.28-31.9,11.28-51.4c0-19.51-3.76-36.57-11.28-51.2c-7.53-14.63-17.97-25.85-31.35-33.65
				c-13.37-7.8-28.84-11.7-46.39-11.7c-17.55,0-33.09,3.9-46.6,11.7s-24.03,19.02-31.56,33.65c-7.52,14.63-11.28,31.69-11.28,51.2
				c0,19.5,3.76,36.64,11.28,51.4c7.53,14.77,18.05,26.12,31.56,34.07C2708.97,3191.01,2724.51,3194.98,2742.06,3194.98z
				 M3184.25,3244.29h-58.52l-132.48-200.19v200.19h-58.52v-292.14h58.52l132.48,200.61v-200.61h58.52V3244.29L3184.25,3244.29z"/>
		</g>
	</g>
</g>
</svg>
